<svg width="20" height="20" viewBox="0 0 20 20" fill="none" xmlns="http://www.w3.org/2000/svg">
<path d="M15.5904 10.6359C15.6103 9.09202 16.4394 7.63115 17.7548 6.82249C16.925 5.6374 15.5351 4.88602 14.0891 4.84078C12.5469 4.67889 11.0517 5.76366 10.2658 5.76366C9.46464 5.76366 8.2546 4.85685 6.95158 4.88366C5.25316 4.93853 3.6698 5.90417 2.84349 7.38906C1.06723 10.4644 2.39216 14.9841 4.09366 17.47C4.94496 18.6873 5.93989 20.047 7.24173 19.9988C8.51566 19.9459 8.99144 19.1864 10.5292 19.1864C12.0527 19.1864 12.499 19.9988 13.8273 19.9681C15.1943 19.9459 16.0555 18.7454 16.877 17.5166C17.4886 16.6493 17.9593 15.6907 18.2715 14.6763C16.6651 13.9969 15.5923 12.3802 15.5904 10.6359Z" fill="#1E1E1E"/>
<path d="M13.0815 3.20595C13.8269 2.31119 14.1941 1.16113 14.1052 0C12.9665 0.1196 11.9146 0.663834 11.1592 1.52426C10.4205 2.36494 10.0361 3.49477 10.1088 4.61152C11.2479 4.62325 12.3677 4.09376 13.0815 3.20595Z" fill="#1E1E1E"/>
</svg>
