<svg width="22" height="22" viewBox="0 0 22 22" fill="none" xmlns="http://www.w3.org/2000/svg">
<path opacity="0.3" d="M11 1.99414C6.038 1.99414 1.99455 6.03759 1.99455 10.9996C1.99455 15.9616 6.038 20.005 11 20.005C15.962 20.005 20.0054 15.9616 20.0054 10.9996C20.0054 6.03759 15.962 1.99414 11 1.99414ZM14.0258 13.0708C14.287 13.332 14.287 13.7643 14.0258 14.0254C13.8907 14.1605 13.7196 14.2235 13.5485 14.2235C13.3774 14.2235 13.2063 14.1605 13.0713 14.0254L11 11.9542L8.92875 14.0254C8.79367 14.1605 8.62256 14.2235 8.45146 14.2235C8.28036 14.2235 8.10925 14.1605 7.97417 14.0254C7.71301 13.7643 7.71301 13.332 7.97417 13.0708L10.0454 10.9996L7.97417 8.92834C7.71301 8.66718 7.71301 8.23492 7.97417 7.97376C8.23533 7.7126 8.66759 7.7126 8.92875 7.97376L11 10.045L13.0713 7.97376C13.3324 7.7126 13.7647 7.7126 14.0258 7.97376C14.287 8.23492 14.287 8.66718 14.0258 8.92834L11.9546 10.9996L14.0258 13.0708Z" fill="#161C2D"/>
</svg>
