<svg width="42" height="42" viewBox="0 0 42 42" fill="none" xmlns="http://www.w3.org/2000/svg">
<path d="M20.9906 41.9441C32.5731 41.9441 41.9626 32.5546 41.9626 20.972C41.9626 9.3895 32.5731 0 20.9906 0C9.40806 0 0.0185547 9.3895 0.0185547 20.972C0.0185547 32.5546 9.40806 41.9441 20.9906 41.9441Z" fill="#526AA7"/>
<path d="M27.499 13.041C27.213 13.041 26.9333 13.1258 26.6955 13.2848C26.4576 13.4437 26.2723 13.6696 26.1629 13.9339C26.0534 14.1982 26.0247 14.489 26.0805 14.7695C26.1363 15.0501 26.274 15.3078 26.4763 15.5101C26.6786 15.7124 26.9364 15.8501 27.2169 15.9059C27.4975 15.9617 27.7883 15.9331 28.0526 15.8236C28.3169 15.7141 28.5427 15.5288 28.7016 15.2909C28.8606 15.0531 28.9454 14.7734 28.9454 14.4874C28.9454 14.1038 28.793 13.7359 28.5218 13.4646C28.2505 13.1934 27.8826 13.041 27.499 13.041Z" fill="white"/>
<path d="M21.0853 14.8899C19.8871 14.8899 18.7158 15.2452 17.7196 15.9109C16.7234 16.5765 15.9469 17.5227 15.4884 18.6296C15.0299 19.7366 14.9099 20.9547 15.1436 22.1298C15.3774 23.305 15.9543 24.3844 16.8016 25.2317C17.6488 26.0789 18.7283 26.6559 19.9035 26.8896C21.0786 27.1234 22.2966 27.0034 23.4036 26.5449C24.5106 26.0864 25.4568 25.3099 26.1224 24.3136C26.7881 23.3174 27.1433 22.1461 27.1433 20.948C27.1433 20.1524 26.9866 19.3646 26.6822 18.6296C26.3778 17.8946 25.9316 17.2268 25.369 16.6643C24.8065 16.1017 24.1386 15.6555 23.4036 15.351C22.6686 15.0466 21.8809 14.8899 21.0853 14.8899ZM21.0853 24.8246C20.3191 24.8223 19.5708 24.5929 18.9348 24.1655C18.2988 23.7381 17.8038 23.1319 17.5122 22.4233C17.2206 21.7147 17.1455 20.9356 17.2964 20.1844C17.4474 19.4332 17.8175 18.7435 18.3601 18.2026C18.9028 17.6616 19.5935 17.2935 20.3452 17.1449C21.0969 16.9963 21.8757 17.0737 22.5834 17.3675C23.2911 17.6613 23.8959 18.1582 24.3213 18.7954C24.7468 19.4327 24.9739 20.1817 24.9739 20.948C24.9707 21.9772 24.5597 22.9632 23.8308 23.6899C23.1018 24.4166 22.1146 24.8246 21.0853 24.8246Z" fill="white"/>
<path d="M25.8985 33.2417H16.0823C15.1124 33.2417 14.1519 33.0507 13.2558 32.6795C12.3597 32.3083 11.5456 31.7643 10.8597 31.0784C10.1739 30.3926 9.62981 29.5784 9.25864 28.6823C8.88747 27.7862 8.69641 26.8258 8.69641 25.8559V16.0397C8.69641 14.0808 9.47461 12.2022 10.8597 10.8171C12.2448 9.43196 14.1235 8.65381 16.0823 8.65381H25.8985C27.8573 8.65381 29.7359 9.43196 31.1211 10.8171C32.5062 12.2022 33.2843 14.0808 33.2843 16.0397V25.8559C33.2843 26.8258 33.0933 27.7862 32.7221 28.6823C32.351 29.5784 31.8069 30.3926 31.1211 31.0784C30.4352 31.7643 29.621 32.3083 28.7249 32.6795C27.8288 33.0507 26.8684 33.2417 25.8985 33.2417ZM16.0823 10.9656C14.7366 10.9656 13.446 11.5002 12.4944 12.4518C11.5428 13.4033 11.0082 14.6939 11.0082 16.0397V25.8559C11.0051 26.5242 11.1341 27.1865 11.3877 27.8049C11.6413 28.4233 12.0145 28.9854 12.486 29.4591C12.9575 29.9328 13.5179 30.3087 14.1351 30.5651C14.7522 30.8216 15.414 30.9536 16.0823 30.9536H25.8985C26.5648 30.9536 27.2246 30.8224 27.8402 30.5674C28.4558 30.3124 29.0152 29.9386 29.4864 29.4675C29.9576 28.9963 30.3313 28.4369 30.5863 27.8213C30.8413 27.2057 30.9726 26.5459 30.9726 25.8796V16.0397C30.9726 14.6939 30.438 13.4033 29.4864 12.4518C28.5348 11.5002 27.2442 10.9656 25.8985 10.9656H16.0823Z" fill="white"/>
</svg>
