<svg width="20" height="21" viewBox="0 0 20 21" fill="none" xmlns="http://www.w3.org/2000/svg">
<path d="M9.03426 9.95341L1.07422 18.4021C1.07452 18.4039 1.07512 18.4054 1.07541 18.4071C1.31953 19.3245 2.15744 20 3.15191 20C3.54945 20 3.92268 19.8925 4.24276 19.7038L4.26818 19.689L13.2282 14.5186L9.03426 9.95341Z" fill="#EA4335"/>
<path d="M17.0865 8.51458L17.0789 8.50935L13.2106 6.26685L8.85254 10.1449L13.2258 14.5176L17.0737 12.2974C17.7483 11.9332 18.2062 11.222 18.2062 10.4019C18.2062 9.58764 17.7544 8.87997 17.0865 8.51458Z" fill="#FBBC04"/>
<path d="M1.073 2.36606C1.02515 2.54251 1 2.72734 1 2.91927V17.8485C1 18.0401 1.02485 18.2255 1.0733 18.4014L9.30729 10.1688L1.073 2.36606Z" fill="#4285F4"/>
<path d="M9.09325 10.3848L13.2133 6.26583L4.26347 1.07682C3.93816 0.88198 3.55849 0.76953 3.15221 0.76953C2.15774 0.76953 1.31871 1.44625 1.07452 2.36477C1.07422 2.36566 1.07422 2.36626 1.07422 2.36709L9.09325 10.3848Z" fill="#34A853"/>
</svg>
