<svg width="32" height="30" viewBox="0 0 32 30" fill="none" xmlns="http://www.w3.org/2000/svg">
<path d="M0.694998 4.86479H4.16999C4.55382 4.86479 4.86498 4.50178 4.86498 4.05398C4.86498 3.60618 4.55382 3.24316 4.16999 3.24316H0.694998C0.311161 3.24316 0 3.60618 0 4.05398C0 4.50178 0.311161 4.86479 0.694998 4.86479Z" fill="#244896"/>
<path d="M10.799 8.91895C12.8996 8.91674 14.6925 7.34675 15.0426 5.20286H30.904C31.3006 5.20286 31.6221 4.87011 31.6221 4.45964C31.6221 4.04918 31.3006 3.71643 30.904 3.71643H15.0426C14.6615 1.38279 12.5855 -0.236184 10.3133 0.0282667C8.04104 0.292717 6.3642 2.34846 6.49331 4.71143C6.62241 7.07439 8.51247 8.92134 10.799 8.91895Z" fill="#244896"/>
<path opacity="0.7" d="M30.9258 13.7837H27.4509C27.067 13.7837 26.7559 14.1467 26.7559 14.5945C26.7559 15.0423 27.067 15.4053 27.4509 15.4053H30.9258C31.3097 15.4053 31.6208 15.0423 31.6208 14.5945C31.6208 14.1467 31.3097 13.7837 30.9258 13.7837Z" fill="#244896"/>
<path opacity="0.7" d="M0.71804 15.7432H16.5795C16.9528 18.029 18.9559 19.6375 21.1878 19.4437C23.4196 19.2498 25.1357 17.3182 25.1357 15C25.1357 12.6818 23.4196 10.7502 21.1878 10.5563C18.9559 10.3625 16.9528 11.971 16.5795 14.2568H0.71804C0.321477 14.2568 0 14.5895 0 15C0 15.4105 0.321477 15.7432 0.71804 15.7432Z" fill="#244896"/>
<path opacity="0.3" d="M4.16999 25.1353H0.694998C0.311161 25.1353 0 25.4983 0 25.9461C0 26.3939 0.311161 26.7569 0.694998 26.7569H4.16999C4.55382 26.7569 4.86498 26.3939 4.86498 25.9461C4.86498 25.4983 4.55382 25.1353 4.16999 25.1353Z" fill="#244896"/>
<path opacity="0.3" d="M30.904 24.7973H15.0425C14.6693 22.5115 12.6661 20.903 10.4343 21.0969C8.20243 21.2907 6.48633 23.2223 6.48633 25.5405C6.48633 27.8587 8.20243 29.7903 10.4343 29.9842C12.6661 30.178 14.6693 28.5695 15.0425 26.2837H30.904C31.3006 26.2837 31.6221 25.951 31.6221 25.5405C31.6221 25.1301 31.3006 24.7973 30.904 24.7973Z" fill="#244896"/>
</svg>
