<svg width="31" height="30" viewBox="0 0 31 30" fill="none" xmlns="http://www.w3.org/2000/svg">
<path d="M6.53132 21.8762C5.36361 21.2673 4.26597 20.5525 3.36184 19.5883C0.329974 16.3655 -0.725131 12.5754 0.499291 8.32833C1.72371 4.08122 4.60377 1.36797 8.90259 0.32121C14.0939 -0.946583 19.3535 1.54146 21.7915 6.29068C21.8291 6.36325 21.875 6.43164 21.9158 6.50254C21.8733 6.6852 21.8716 6.69187 21.6656 6.63933C21.3019 6.54841 20.9433 6.43831 20.5755 6.36158C17.5853 5.73936 14.7453 6.14806 12.1071 7.68943C8.67823 9.69121 6.73317 12.7081 6.20353 16.6307C5.99001 18.2079 6.14764 19.7677 6.5847 21.3015C6.63042 21.4398 6.66637 21.5811 6.69229 21.7244C6.70397 21.822 6.70731 21.9396 6.53132 21.8762Z" fill="#244896"/>
<path d="M22.0449 6.67383C24.7698 7.67972 26.9058 9.40626 28.3838 11.9127C32.5717 19.009 28.4622 28.193 20.4034 29.7618C14.5457 30.9037 8.8623 27.7267 6.77545 22.1434C6.7571 22.0942 6.73374 22.0475 6.71289 22C6.8722 21.8156 7.01566 21.9866 7.14244 22.04C7.6721 22.253 8.21446 22.4329 8.76638 22.5788C8.91466 22.6273 9.06998 22.6507 9.22596 22.648C9.33522 22.6672 9.45783 22.6639 9.49036 22.809C9.41946 22.9591 9.51455 23.0684 9.58461 23.1818C10.9525 25.388 12.8976 26.8317 15.3848 27.549C16.3048 27.8204 17.2617 27.9459 18.2206 27.921C20.2174 27.8585 22.0574 27.2955 23.6963 26.1395C25.7715 24.6732 27.116 22.7014 27.6999 20.2225C28.1878 18.1373 27.9985 16.1039 27.1694 14.1338C26.3795 12.2216 24.9966 10.6136 23.2242 9.54638C23.11 9.47632 22.9999 9.38374 22.8497 9.45213C22.7054 9.4196 22.7071 9.29783 22.6879 9.18856C22.6104 8.46792 22.3435 7.80316 22.0916 7.1334C22.039 6.99328 21.878 6.84565 22.0449 6.67383Z" fill="#AFC8FF"/>
<path d="M22.0455 6.67406C21.968 6.78666 22.0747 6.86256 22.1097 6.9468C22.3877 7.60272 22.6065 8.28213 22.7637 8.97694C22.7795 9.04534 22.8562 9.13291 22.7345 9.18546C22.6002 9.20131 22.4951 9.12374 22.3833 9.07203C20.8253 8.34555 19.1863 7.97605 17.4698 8.09282C15.2895 8.24462 13.3294 8.99529 11.648 10.4199C9.6812 12.0814 8.55353 14.2091 8.19989 16.7447C7.92798 18.6981 8.28746 20.5597 9.10903 22.3413C9.16074 22.4531 9.23831 22.5573 9.22246 22.6916C9.16908 22.8134 9.08234 22.7367 9.01311 22.7217C8.2986 22.559 7.6006 22.3309 6.92792 22.0402C6.86286 22.0127 6.80114 21.9218 6.7144 22.0027L6.53174 21.8767C6.76444 21.8984 6.62765 21.7608 6.60597 21.6899C6.38992 21.0058 6.23391 20.3042 6.13972 19.593C5.73519 16.2984 6.51172 13.3091 8.53518 10.6793C10.4794 8.15288 13.0617 6.64654 16.2087 6.13775C18.036 5.8444 19.9067 5.98556 21.6694 6.54978C21.7261 6.5673 21.8954 6.77582 21.9196 6.49724L22.0455 6.67406Z" fill="#E5F0FF"/>
<path d="M9.22375 22.6915C8.6145 21.6243 8.23734 20.4405 8.11693 19.2176C7.76662 15.9522 8.74749 13.1288 11.0854 10.8218C14.1048 7.84164 18.7756 7.15186 22.5548 9.07023C22.6171 9.10573 22.6775 9.14443 22.7358 9.18617L22.8492 9.43639C23.0711 9.63574 23.0227 9.92016 23.0519 10.1662C23.2945 12.087 23.032 14.0379 22.2904 15.8262C21.1911 18.4953 19.3653 20.5137 16.7763 21.8316C14.9322 22.7699 12.9763 23.1578 10.9211 23.0827C10.5264 23.0608 10.1334 23.0151 9.74421 22.9459C9.69185 22.9448 9.64047 22.9314 9.59425 22.9068C9.54802 22.8821 9.50825 22.847 9.47814 22.8041L9.22375 22.6915Z" fill="#244896"/>
</svg>
