<svg width="31" height="30" viewBox="0 0 31 30" fill="none" xmlns="http://www.w3.org/2000/svg">
<path d="M17.5263 24.0986C17.2626 23.4364 16.9484 22.7955 16.5866 22.1814C15.6776 20.663 14.4468 19.3624 12.9808 18.3713C12.9018 18.3259 12.8375 18.2587 12.7958 18.1778C12.754 18.0968 12.7366 18.0055 12.7454 17.9149C12.7505 14.5444 12.7454 11.173 12.7572 7.80251C12.7572 7.51337 12.6731 7.46631 12.4109 7.47051C11.5502 7.48732 10.6895 7.47723 9.82795 7.47639C9.60773 7.47639 9.37575 7.49656 9.25807 7.24441C9.1404 6.99225 9.31187 6.84852 9.44383 6.68882C11.2072 4.55108 12.9724 2.41447 14.7391 0.278976C15.0434 -0.0891741 15.2435 -0.0933776 15.5452 0.268889L20.859 6.70143C20.9851 6.85524 21.1355 7.00402 21.038 7.23264C20.9405 7.46126 20.722 7.47723 20.5068 7.47639C19.5932 7.47639 18.6804 7.48144 17.7667 7.47639C17.5927 7.47639 17.5364 7.51422 17.5364 7.69829C17.5431 9.72396 17.5406 11.7505 17.5406 13.7837C17.6869 13.7887 17.7701 13.6811 17.8718 13.6206C19.2545 12.7763 20.8142 12.2642 22.4283 12.1245C22.6443 12.106 22.6762 12.0304 22.6745 11.8421C22.6661 10.9284 22.6703 10.0148 22.6703 9.10113C22.6703 8.89856 22.6703 8.69011 22.8855 8.58588C23.1007 8.48166 23.2621 8.60269 23.4226 8.7355C25.5643 10.5045 27.7076 12.2747 29.8526 14.0459C30.2468 14.3721 30.2493 14.5503 29.8627 14.8697C27.7037 16.6549 25.5435 18.4396 23.3823 20.2238C23.2335 20.3474 23.0788 20.423 22.8939 20.3457C22.709 20.2683 22.6678 20.0851 22.6678 19.8977C22.6678 19.0059 22.6544 18.1124 22.6754 17.2206C22.6829 16.9281 22.5913 16.9104 22.3392 16.9491C19.9227 17.3265 17.8777 19.453 17.5894 21.8847C17.507 22.5932 17.5667 23.3035 17.5263 24.0986Z" fill="#244896"/>
<path d="M15.1383 29.999H13.3421C12.8478 29.999 12.7537 29.9023 12.7487 29.4182C12.7487 28.5373 12.7999 27.6531 12.5612 26.789C11.8849 24.3487 10.3333 22.7646 7.90638 22.0367C7.6475 21.9594 7.61052 22.0367 7.61472 22.272C7.62649 23.1126 7.61472 23.9531 7.61977 24.7936C7.61977 24.9978 7.61556 25.2013 7.39619 25.3055C7.17681 25.4097 7.01879 25.2777 6.86161 25.1483C4.70987 23.3686 2.55756 21.5901 0.404698 19.8127C0.0491563 19.5193 0.0508374 19.326 0.404698 19.0326L6.79269 13.7575L6.93894 13.6382C7.07595 13.5289 7.21631 13.4499 7.39871 13.5398C7.5811 13.6297 7.62145 13.781 7.62229 13.9601C7.62229 14.5056 7.62229 15.0528 7.62229 15.5983C7.62229 16.0286 7.62817 16.459 7.62229 16.8893C7.62229 17.0524 7.65759 17.1247 7.83914 17.1524C10.162 17.4957 12.3217 18.5492 14.0221 20.1684C15.7226 21.7876 16.8805 23.8932 17.3371 26.1964C17.559 27.3169 17.5506 28.4516 17.5346 29.5854C17.5346 29.8746 17.3825 29.9965 17.0597 29.9981C16.4192 30.0015 15.7787 29.999 15.1383 29.999Z" fill="#AFC8FF"/>
</svg>
