<svg width="43" height="43" viewBox="0 0 43 43" fill="none" xmlns="http://www.w3.org/2000/svg">
<g clip-path="url(#clip0_82_662)">
<circle opacity="0.100028" cx="21.5" cy="21.5" r="21.5" fill="#244896"/>
<path d="M26.7133 16.38H20.0133V20.36C20.2933 19.9867 20.7066 19.6733 21.2533 19.42C21.8133 19.1667 22.4066 19.04 23.0333 19.04C24.1533 19.04 25.0599 19.28 25.7533 19.76C26.4599 20.24 26.9599 20.8467 27.2533 21.58C27.5599 22.3133 27.7133 23.0867 27.7133 23.9C27.7133 24.8867 27.5199 25.7667 27.1333 26.54C26.7599 27.3 26.1933 27.9 25.4333 28.34C24.6866 28.78 23.7666 29 22.6733 29C21.2199 29 20.0533 28.64 19.1733 27.92C18.2933 27.2 17.7666 26.2467 17.5933 25.06H19.8133C19.9599 25.6867 20.2866 26.1867 20.7933 26.56C21.2999 26.92 21.9333 27.1 22.6933 27.1C23.6399 27.1 24.3466 26.8133 24.8133 26.24C25.2933 25.6667 25.5333 24.9067 25.5333 23.96C25.5333 23 25.2933 22.2667 24.8133 21.76C24.3333 21.24 23.6266 20.98 22.6933 20.98C22.0399 20.98 21.4866 21.1467 21.0333 21.48C20.5933 21.8 20.2733 22.24 20.0733 22.8H17.9133V14.38H26.7133V16.38Z" fill="#244896"/>
</g>
<defs>
<clipPath id="clip0_82_662">
<rect width="43" height="43" fill="white"/>
</clipPath>
</defs>
</svg>
