<svg width="43" height="43" viewBox="0 0 43 43" fill="none" xmlns="http://www.w3.org/2000/svg">
<g clip-path="url(#clip0_157_696)">
<circle opacity="0.100028" cx="21.5" cy="21.5" r="21.5" fill="#244896"/>
<path d="M25.124 17.8C24.9773 17.1867 24.7107 16.7267 24.324 16.42C23.9373 16.1133 23.3973 15.96 22.704 15.96C21.6507 15.96 20.864 16.3667 20.344 17.18C19.824 17.98 19.5507 19.3133 19.524 21.18C19.8707 20.5933 20.3773 20.14 21.044 19.82C21.7107 19.5 22.4307 19.34 23.204 19.34C24.084 19.34 24.8573 19.5333 25.524 19.92C26.204 20.2933 26.7307 20.84 27.104 21.56C27.4907 22.28 27.684 23.14 27.684 24.14C27.684 25.0733 27.4973 25.9067 27.124 26.64C26.764 27.3733 26.224 27.9533 25.504 28.38C24.784 28.7933 23.9173 29 22.904 29C21.5307 29 20.4507 28.7 19.664 28.1C18.8907 27.4867 18.344 26.6267 18.024 25.52C17.7173 24.4133 17.564 23.0333 17.564 21.38C17.564 16.5 19.284 14.06 22.724 14.06C24.0573 14.06 25.104 14.42 25.864 15.14C26.6373 15.86 27.0907 16.7467 27.224 17.8H25.124ZM22.704 21.26C21.8907 21.26 21.1973 21.5067 20.624 22C20.064 22.48 19.784 23.18 19.784 24.1C19.784 25.02 20.044 25.7533 20.564 26.3C21.0973 26.8333 21.8373 27.1 22.784 27.1C23.624 27.1 24.284 26.84 24.764 26.32C25.2573 25.8 25.504 25.1067 25.504 24.24C25.504 23.3333 25.264 22.6133 24.784 22.08C24.3173 21.5333 23.624 21.26 22.704 21.26Z" fill="#244896"/>
</g>
<defs>
<clipPath id="clip0_157_696">
<rect width="43" height="43" fill="white"/>
</clipPath>
</defs>
</svg>
