<svg width="43" height="43" viewBox="0 0 43 43" fill="none" xmlns="http://www.w3.org/2000/svg">
<g clip-path="url(#clip0_82_635)">
<circle opacity="0.100028" cx="21.5" cy="21.5" r="21.5" fill="#244896"/>
<path d="M16.7225 18.02C16.8025 16.78 17.2758 15.8133 18.1425 15.12C19.0225 14.4267 20.1425 14.08 21.5025 14.08C22.4358 14.08 23.2425 14.2467 23.9225 14.58C24.6025 14.9133 25.1158 15.3667 25.4625 15.94C25.8092 16.5133 25.9825 17.16 25.9825 17.88C25.9825 18.7067 25.7625 19.4133 25.3225 20C24.8825 20.5867 24.3558 20.98 23.7425 21.18V21.26C24.5292 21.5 25.1425 21.94 25.5825 22.58C26.0225 23.2067 26.2425 24.0133 26.2425 25C26.2425 25.7867 26.0625 26.4867 25.7025 27.1C25.3425 27.7133 24.8092 28.2 24.1025 28.56C23.3958 28.9067 22.5492 29.08 21.5625 29.08C20.1225 29.08 18.9358 28.7133 18.0025 27.98C17.0825 27.2333 16.5892 26.1667 16.5225 24.78H18.7225C18.7758 25.4867 19.0492 26.0667 19.5425 26.52C20.0358 26.96 20.7025 27.18 21.5425 27.18C22.3558 27.18 22.9825 26.96 23.4225 26.52C23.8625 26.0667 24.0825 25.4867 24.0825 24.78C24.0825 23.8467 23.7825 23.1867 23.1825 22.8C22.5958 22.4 21.6892 22.2 20.4625 22.2H19.9425V20.32H20.4825C21.5625 20.3067 22.3825 20.1267 22.9425 19.78C23.5158 19.4333 23.8025 18.8867 23.8025 18.14C23.8025 17.5 23.5958 16.9933 23.1825 16.62C22.7692 16.2333 22.1825 16.04 21.4225 16.04C20.6758 16.04 20.0958 16.2333 19.6825 16.62C19.2692 16.9933 19.0225 17.46 18.9425 18.02H16.7225Z" fill="#244896"/>
</g>
<defs>
<clipPath id="clip0_82_635">
<rect width="43" height="43" fill="white"/>
</clipPath>
</defs>
</svg>
