<svg width="43" height="43" viewBox="0 0 43 43" fill="none" xmlns="http://www.w3.org/2000/svg">
<g clip-path="url(#clip0_82_622)">
<circle opacity="0.100028" cx="21.5" cy="21.5" r="21.5" fill="#244896"/>
<path d="M18.6885 25.9C19.9685 24.7933 20.9752 23.8867 21.7085 23.18C22.4552 22.46 23.0752 21.7133 23.5685 20.94C24.0618 20.1667 24.3085 19.3933 24.3085 18.62C24.3085 17.82 24.1152 17.1933 23.7285 16.74C23.3552 16.2867 22.7618 16.06 21.9485 16.06C21.1618 16.06 20.5485 16.3133 20.1085 16.82C19.6818 17.3133 19.4552 17.98 19.4285 18.82H17.2285C17.2685 17.3 17.7218 16.14 18.5885 15.34C19.4685 14.5267 20.5818 14.12 21.9285 14.12C23.3818 14.12 24.5152 14.52 25.3285 15.32C26.1552 16.12 26.5685 17.1867 26.5685 18.52C26.5685 19.48 26.3218 20.4067 25.8285 21.3C25.3485 22.18 24.7685 22.9733 24.0885 23.68C23.4218 24.3733 22.5685 25.18 21.5285 26.1L20.6285 26.9H26.9685V28.8H17.2485V27.14L18.6885 25.9Z" fill="#244896"/>
</g>
<defs>
<clipPath id="clip0_82_622">
<rect width="43" height="43" fill="white"/>
</clipPath>
</defs>
</svg>
