<svg width="16" height="16" viewBox="0 0 16 16" fill="none" xmlns="http://www.w3.org/2000/svg">
<path d="M6.68915 12.4907C6.37031 12.445 6.11219 12.4049 5.85271 12.3716C3.17087 12.0297 0.983166 9.75256 0.845141 7.15976C0.686412 4.17106 2.51249 1.68071 5.32958 1.06885C5.64772 1.00573 5.97148 0.975579 6.29576 0.978863C7.59734 0.969173 8.89893 0.96502 10.2005 0.978863C11.406 1.00591 12.5739 1.40432 13.5458 2.12003C14.5177 2.83574 15.2465 3.83408 15.6332 4.97949C16.3951 7.32311 15.5462 9.88405 13.5034 11.3652C11.7091 12.6693 9.90099 13.9608 8.09838 15.2593C7.98207 15.3507 7.86087 15.4358 7.73536 15.514C7.20396 15.8075 6.78989 15.6095 6.73882 14.999C6.69465 14.4675 6.73056 13.9304 6.72365 13.3974C6.72227 13.0998 6.70295 12.8105 6.68915 12.4907ZM7.70361 14.1518C7.83449 14.1253 7.96219 14.085 8.08457 14.0314C9.84025 12.7703 11.6387 11.5632 13.3295 10.2218C14.5607 9.24452 15.0811 7.84221 14.9017 6.26134C14.7726 5.08407 14.2221 3.99376 13.3521 3.19283C12.4822 2.3919 11.3521 1.93478 10.1715 1.90634C8.90031 1.86619 7.62494 1.84681 6.3551 1.90634C2.6574 2.09045 0.635332 6.09245 2.49039 9.11576C3.42206 10.6385 4.85063 11.3902 6.63115 11.4691C7.45931 11.5051 7.68015 11.7321 7.70223 12.5447C7.71465 13.0541 7.70361 13.5538 7.70361 14.1588V14.1518Z" fill="#C3D4E9"/>
</svg>
