<svg width="18" height="15" viewBox="0 0 18 15" fill="none" xmlns="http://www.w3.org/2000/svg">
<path d="M9.10906 2.72588C9.4141 2.36319 9.68603 1.96452 10.0283 1.64198C10.8676 0.851199 11.9807 0.418861 13.1322 0.436428C14.2836 0.453996 15.3831 0.920082 16.198 1.7361C17.8336 3.39726 17.904 6.1534 16.2615 7.86162C14.147 10.0599 11.9703 12.1986 9.80748 14.3512C9.19602 14.9589 8.66183 14.9465 8.04348 14.3304C5.90408 12.1972 3.75226 10.0751 1.64875 7.90593C0.849764 7.06847 0.411532 5.94929 0.428693 4.79034C0.445854 3.6314 0.917045 2.52577 1.74047 1.71248C2.5639 0.899184 3.67337 0.443566 4.82906 0.4441C5.98475 0.444634 7.09382 0.901279 7.9165 1.71533C8.22982 2.02265 8.4686 2.40749 8.74465 2.75771L9.10906 2.72588ZM8.94758 13.7906C11.2209 11.5231 13.4596 9.36082 15.6059 7.12103C16.8923 5.77549 16.757 3.64782 15.4568 2.37842C14.1276 1.08271 12.1318 1.05502 10.7226 2.32304C10.3706 2.64005 10.0559 2.99859 9.71083 3.32113C9.15873 3.8444 8.72807 3.84716 8.17045 3.33082C7.80192 2.98889 7.47069 2.60544 7.09388 2.27321C6.71395 1.92927 6.26173 1.6755 5.77071 1.5307C5.27968 1.38591 4.76243 1.3538 4.25735 1.43677C3.75227 1.51973 3.27228 1.71564 2.85297 2.00997C2.43365 2.3043 2.08578 2.68949 1.8351 3.13701C1.04559 4.513 1.28299 6.15201 2.48243 7.37296C4.45757 9.37604 6.45206 11.3597 8.43962 13.349C8.58041 13.4971 8.7433 13.6203 8.94758 13.8003V13.7906Z" fill="#C3D4E9"/>
</svg>
