<svg width="18" height="13" viewBox="0 0 18 13" fill="none" xmlns="http://www.w3.org/2000/svg">
<path d="M2.62508 2.0825C2.23447 2.47288 1.84937 2.86741 1.4491 3.24809C1.315 3.40029 1.14721 3.51883 0.959135 3.59416C0.876853 3.60843 0.792396 3.60335 0.712401 3.57933C0.632407 3.55531 0.559011 3.513 0.498085 3.45573C0.411129 3.3533 0.431843 3.14012 0.440125 2.97816C0.461456 2.89186 0.509836 2.8147 0.57815 2.75804C1.34833 1.98007 2.12039 1.20348 2.89425 0.428274C3.17997 0.141724 3.47671 0.151414 3.74862 0.428274C4.49948 1.1841 5.24478 1.94547 5.98459 2.71237C6.19853 2.93385 6.38768 3.21209 6.10334 3.48618C5.79831 3.77689 5.50847 3.60108 5.25726 3.34775L3.90734 2.00222C3.86059 2.20605 3.82743 2.41276 3.808 2.621C3.808 5.319 3.79834 8.01976 3.808 10.715C3.808 11.684 4.12129 11.9816 5.08884 11.9872C6.56572 11.9955 8.04395 11.9872 9.52082 11.9872C9.75684 11.9872 10.0122 11.9581 10.2207 12.0412C10.3075 12.081 10.3838 12.1407 10.4435 12.2155C10.5031 12.2902 10.5445 12.378 10.5643 12.4717C10.5504 12.5666 10.5151 12.6571 10.4611 12.7363C10.407 12.8155 10.3357 12.8812 10.2524 12.9285C10.0854 13.0171 9.85069 12.9922 9.64503 12.9936C8.16816 12.9936 6.68993 12.9631 5.21305 13.0046C3.51672 13.0517 2.77143 11.9124 2.80731 10.607C2.87633 8.11529 2.828 5.62355 2.828 3.13181V2.1628L2.62508 2.0825Z" fill="#C3D4E9"/>
<path d="M14.4757 11.1905C14.5074 10.7545 14.5433 10.4984 14.5433 10.2506C14.5433 7.70253 14.5433 5.15358 14.5433 2.6037C14.5433 1.4395 14.2562 1.16126 13.0582 1.15296C11.6696 1.14327 10.2811 1.15296 8.89253 1.15296C8.65651 1.15296 8.41912 1.15295 8.18448 1.12942C7.91671 1.10312 7.69726 0.941162 7.77869 0.671223C7.83252 0.495417 8.05475 0.344531 8.23556 0.240708C8.34874 0.17703 8.52406 0.21994 8.67174 0.21994C10.2383 0.21994 11.8049 0.26424 13.3646 0.204715C14.6551 0.156264 15.573 1.14188 15.5357 2.4362C15.4709 4.95425 15.5164 7.47505 15.5164 9.99448V11.1019C15.7096 10.9994 15.8943 10.8813 16.0685 10.7489C16.437 10.407 16.7821 10.0402 17.1451 9.69271C17.3701 9.47814 17.6571 9.42692 17.8352 9.69271C17.9332 9.8436 17.9512 10.1952 17.8449 10.3101C17.0664 11.1601 16.2521 11.9713 15.4391 12.8018C15.1865 13.0566 14.9022 13.0261 14.6565 12.7797C13.8845 12.0045 13.1166 11.2247 12.3529 10.4402C12.121 10.2007 12.0437 9.91004 12.3018 9.65533C12.5861 9.37847 12.8539 9.56534 13.072 9.78267C13.5095 10.2021 13.9305 10.6368 14.4757 11.1905Z" fill="#C3D4E9"/>
</svg>
