<svg width="13" height="12" viewBox="0 0 13 12" fill="none" xmlns="http://www.w3.org/2000/svg">
<path d="M10.9591 11.5372H2.45398C2.23087 11.5377 2.00984 11.4941 1.80355 11.4089C1.59726 11.3236 1.40981 11.1984 1.25185 11.0404C1.0939 10.8823 0.968575 10.6946 0.883067 10.4879C0.79756 10.2812 0.753533 10.0597 0.753534 9.83589V6.36547C0.750934 6.2496 0.792215 6.13705 0.869049 6.05049C0.945883 5.96392 1.05256 5.90979 1.16761 5.89896C1.22731 5.89557 1.28709 5.90444 1.34324 5.92503C1.3994 5.94563 1.45071 5.97751 1.49414 6.01873C1.53757 6.05995 1.57218 6.10963 1.59577 6.16473C1.61937 6.21983 1.63145 6.27919 1.63136 6.33916V9.39431C1.63136 9.55967 1.66385 9.7234 1.72699 9.87616C1.79013 10.0289 1.88268 10.1677 1.99933 10.2846C2.11599 10.4014 2.25449 10.4941 2.40687 10.5572C2.55925 10.6204 2.72252 10.6528 2.8874 10.6526H10.512C10.8448 10.6526 11.1641 10.5201 11.3996 10.2842C11.6351 10.0482 11.7676 9.72817 11.7679 9.39431V6.36547C11.7653 6.2496 11.8066 6.13705 11.8834 6.05049C11.9603 5.96392 12.067 5.90979 12.182 5.89896C12.2417 5.89557 12.3015 5.90444 12.3576 5.92503C12.4138 5.94563 12.4652 5.97751 12.5086 6.01873C12.552 6.05995 12.5866 6.10963 12.6102 6.16473C12.6338 6.21983 12.6459 6.27919 12.6458 6.33916V9.83589C12.6458 10.2854 12.4684 10.7167 12.1524 11.0355C11.8363 11.3543 11.4073 11.5346 10.9591 11.5372Z" fill="#C3D4E9"/>
<path d="M6.69135 9.37568C6.57471 9.36552 6.46626 9.31121 6.38807 9.2238C6.30989 9.13639 6.26786 9.02242 6.2704 8.90502V3.16986C6.26753 3.05238 6.30949 2.93823 6.38774 2.85074C6.46599 2.76326 6.57458 2.70906 6.69135 2.69922C6.75078 2.6966 6.8101 2.70608 6.86577 2.7271C6.92144 2.74812 6.9723 2.78022 7.01525 2.82149C7.05821 2.86276 7.09241 2.91234 7.11574 2.96722C7.13907 3.0221 7.15105 3.08114 7.15099 3.1408V8.93408C7.15105 8.99374 7.13907 9.0528 7.11574 9.10768C7.09241 9.16256 7.05821 9.21212 7.01525 9.25339C6.9723 9.29466 6.92144 9.32679 6.86577 9.3478C6.8101 9.36882 6.75078 9.3783 6.69135 9.37568Z" fill="#C3D4E9"/>
<path d="M6.61363 0.717368C6.18437 1.81096 5.53428 3.08176 4.83035 3.98294C4.81717 3.99925 4.8097 4.01945 4.80912 4.04043C4.80853 4.06141 4.81486 4.082 4.82711 4.09902C4.83937 4.11603 4.85687 4.12853 4.87692 4.13457C4.89696 4.14061 4.9184 4.13987 4.93798 4.13244L6.70474 3.49151L8.45628 4.1269C8.47668 4.13393 8.49879 4.13421 8.51936 4.12769C8.53993 4.12117 8.55791 4.1082 8.57058 4.09069C8.58325 4.07317 8.58999 4.05203 8.58979 4.03039C8.58959 4.00875 8.58243 3.98775 8.56943 3.97047C7.86965 3.07068 7.22229 1.80681 6.7958 0.717368C6.78806 0.699585 6.77538 0.68445 6.7592 0.673822C6.74302 0.663193 6.72409 0.657532 6.70474 0.657532C6.6854 0.657532 6.66647 0.663193 6.65029 0.673822C6.63411 0.68445 6.62136 0.699585 6.61363 0.717368Z" fill="#C3D4E9"/>
</svg>
