<svg width="42" height="42" viewBox="0 0 42 42" fill="none" xmlns="http://www.w3.org/2000/svg">
<path d="M21.0091 41.9441C32.5917 41.9441 41.9812 32.5546 41.9812 20.972C41.9812 9.38949 32.5917 0 21.0091 0C9.42661 0 0.0371094 9.38949 0.0371094 20.972C0.0371094 32.5546 9.42661 41.9441 21.0091 41.9441Z" fill="#526AA7"/>
<path d="M32.5919 13.7755C31.8347 14.1018 31.0373 14.3251 30.2208 14.4394C30.6002 14.4394 31.1455 13.7044 31.4063 13.4317C31.7492 13.0182 32.0107 12.5436 32.1769 12.0328C32.1769 12.0328 32.1769 11.938 32.1769 11.9142C32.1571 11.9028 32.1346 11.8968 32.1117 11.8968C32.0888 11.8968 32.0663 11.9028 32.0465 11.9142C31.1798 12.3728 30.26 12.7232 29.3079 12.9575C29.2795 12.9754 29.2467 12.9849 29.2131 12.9849C29.1796 12.9849 29.1467 12.9754 29.1183 12.9575C29.0454 12.8689 28.9661 12.7857 28.8811 12.7086C28.487 12.3671 28.0381 12.0945 27.5534 11.9024C26.9088 11.6344 26.2106 11.5208 25.5143 11.5704C24.8388 11.6197 24.1803 11.8059 23.579 12.1177C22.9778 12.4295 22.4463 12.8605 22.0169 13.3843C21.5733 13.9322 21.2574 14.5721 21.0922 15.2574C20.9619 15.907 20.9619 16.5759 21.0922 17.2254C21.0922 17.3321 21.0922 17.344 20.9973 17.3321C17.3768 16.9732 14.0184 15.2834 11.5724 12.59C11.4657 12.4596 11.4064 12.4596 11.3234 12.59C10.825 13.4922 10.6341 14.5321 10.7795 15.5525C10.925 16.5729 11.3989 17.5181 12.1296 18.245L12.7105 18.7548C12.0794 18.6993 11.4643 18.5264 10.8967 18.245C10.7781 18.1739 10.7307 18.245 10.7188 18.3398C10.7014 18.5172 10.7014 18.6959 10.7188 18.8733C10.831 19.7226 11.1667 20.5268 11.6916 21.2037C12.2165 21.8807 12.9118 22.4061 13.7064 22.7263C13.8993 22.8143 14.1024 22.878 14.311 22.916C13.7179 23.0092 13.1139 23.0092 12.5208 22.916C12.3904 22.916 12.343 22.916 12.3904 23.0819C12.6949 23.8818 13.199 24.5903 13.8548 25.1403C14.5105 25.6902 15.2961 26.0631 16.1367 26.2236C16.3081 26.235 16.4785 26.2587 16.6465 26.2947C15.919 26.9543 15.0391 27.4228 14.0857 27.6581C12.8402 28.1008 11.5141 28.2706 10.1972 28.156C9.98378 28.156 9.9482 28.156 9.88892 28.156C9.82964 28.156 9.88898 28.239 9.94826 28.2983C10.2091 28.4643 10.4817 28.6184 10.7544 28.7725C11.5795 29.2132 12.4501 29.563 13.3507 29.8158C15.662 30.5057 18.1134 30.581 20.4627 30.0343C22.812 29.4875 24.9781 28.3375 26.7472 26.6978C28.0196 25.316 29.0033 23.694 29.6405 21.9269C30.2778 20.1598 30.5556 18.2833 30.4579 16.4074C30.4579 16.2651 30.6357 16.1822 30.7424 16.0992C31.4385 15.5573 32.0533 14.9186 32.5681 14.2023C32.6476 14.0965 32.6893 13.9671 32.6867 13.8348C32.6867 13.8348 32.6867 13.74 32.5919 13.7755Z" fill="white"/>
</svg>
