<svg width="42" height="42" viewBox="0 0 42 42" fill="none" xmlns="http://www.w3.org/2000/svg">
<path d="M21.0277 41.9441C32.6102 41.9441 41.9997 32.5546 41.9997 20.972C41.9997 9.3895 32.6102 0 21.0277 0C9.44517 0 0.0556641 9.3895 0.0556641 20.972C0.0556641 32.5546 9.44517 41.9441 21.0277 41.9441Z" fill="#526AA7"/>
<path d="M32.2547 18.0195C32.2547 16.6832 31.7238 15.4016 30.7789 14.4567C29.834 13.5118 28.5525 12.981 27.2162 12.981H14.3414C13.0051 12.981 11.7234 13.5118 10.7785 14.4567C9.83364 15.4016 9.30286 16.6832 9.30286 18.0195V23.9471C9.30286 25.2834 9.83364 26.565 10.7785 27.5099C11.7234 28.4548 13.0051 28.9856 14.3414 28.9856H27.2162C28.5525 28.9856 29.834 28.4548 30.7789 27.5099C31.7238 26.565 32.2547 25.2834 32.2547 23.9471V18.0195ZM24.6792 21.4575L18.9056 24.3146C18.6804 24.445 17.9097 24.3146 17.9097 24.0182V18.1499C17.9097 17.889 18.6922 17.7231 18.9175 17.8535L24.442 20.8647C24.6791 20.9596 24.9163 21.2915 24.6792 21.4219V21.4575Z" fill="white"/>
</svg>
